# xmcd
#
# Track frame offsets:
#	150
#	15754
#	35132
#	52620
#	68686
#	86773
#	105879
#	128779
#	142266
#	160952
#	181576
#
# Disc length: 2639 seconds
#
# Revision: 1
# Processed by: cddbd v1.5.2PL0 Copyright (c) Steve Scherf et al.
# Submitted via: EasyCDDAExtractor 11.1.0.1
#
DISCID=800a4d0b
DTITLE=Sherrie Erickson - Songs From My Sofa
DYEAR=2008
DGENRE=Country
TTITLE0=I Don't Need You
TTITLE1=She's Beautiful
TTITLE2=Better Day
TTITLE3=Mother's Love
TTITLE4=I Saw Your Heart
TTITLE5=I Want You
TTITLE6=Run Away
TTITLE7=Road To Paradise
TTITLE8=Desire
TTITLE9=Dream
TTITLE10=I Wanna Be Happy
EXTD=
EXTT0=
EXTT1=
EXTT2=
EXTT3=
EXTT4=
EXTT5=
EXTT6=
EXTT7=
EXTT8=
EXTT9=
EXTT10=
PLAYORDER=
